<svg width="1024" height="1024" viewBox="0 0 1024 1024" fill="none" xmlns="http://www.w3.org/2000/svg">
<rect width="1024" height="1024" fill="white"/>
<path d="M439.66 67C495.285 67 544.864 74.2554 588.397 88.7663C631.929 102.471 668.206 122.625 697.228 149.228C727.056 175.025 749.629 206.466 764.946 243.549C780.263 279.826 787.921 320.94 787.921 366.891C787.921 403.168 782.278 439.446 770.992 475.723C760.512 512 742.776 545.053 717.785 574.88C693.6 604.708 661.354 628.893 621.046 647.435C580.738 665.17 530.756 674.038 471.1 674.038H345.34V957H170V67H439.66ZM469.891 504.745C496.495 504.745 518.664 500.311 536.399 491.443C554.135 482.575 567.84 471.289 577.514 457.584C587.994 443.88 595.249 429.772 599.28 415.261C604.117 399.944 606.535 385.836 606.535 372.938C606.535 363.264 604.923 351.171 601.698 336.66C599.28 321.343 593.637 306.026 584.769 290.709C575.901 275.392 562.197 262.494 543.655 252.014C525.919 241.534 501.735 236.294 471.1 236.294H345.34V504.745H469.891ZM634.348 613.576L854.429 957H650.068L425.149 618.413L634.348 613.576Z" fill="#C57F2E"/>
<path fill-rule="evenodd" clip-rule="evenodd" d="M345.34 674.038V957H170V67H439.66C495.285 67 544.864 74.2554 588.397 88.7663C631.929 102.471 668.206 122.625 697.228 149.228C727.056 175.025 749.629 206.466 764.946 243.549C780.263 279.826 787.921 320.94 787.921 366.891C787.921 403.168 782.278 439.446 770.992 475.723C760.512 512 742.776 545.053 717.785 574.88C703.774 592.161 687.058 607.547 667.636 621.039C661.175 625.527 654.415 629.805 647.356 633.874L854.429 957H650.068L462.1 674.038H345.34ZM449.23 698.038H369.34V981H146V43H439.66C497.257 43 549.407 50.4988 595.795 65.9343C641.938 80.4863 681.289 102.137 713.189 131.301C745.747 159.53 770.415 193.962 787.091 234.298C803.822 273.959 811.921 318.297 811.921 366.891C811.921 405.621 805.903 444.222 793.98 482.621C782.553 522.054 763.256 557.94 736.305 590.146C720.6 609.486 701.977 626.5 680.593 641.258L898.315 981H637.198L449.23 698.038ZM558.171 443.369L558.449 443.005C567.336 431.384 573.055 419.998 576.155 408.837L576.268 408.434L576.394 408.034C580.666 394.506 582.535 382.869 582.535 372.938C582.535 365.683 581.294 355.475 578.27 341.867L578.108 341.139L577.992 340.403C576.095 328.386 571.594 315.852 563.999 302.734C557.672 291.807 547.422 281.711 531.845 272.907L531.644 272.793L531.445 272.676C518.785 265.195 499.386 260.294 471.1 260.294H369.34V480.745H469.891C493.983 480.745 512.202 476.709 525.666 469.977C540.504 462.558 550.898 453.672 557.906 443.744L558.171 443.369ZM345.34 504.745V236.294H471.1C501.735 236.294 525.919 241.534 543.655 252.014C562.197 262.494 575.901 275.392 584.769 290.709C593.637 306.026 599.28 321.343 601.698 336.66C604.923 351.171 606.535 363.264 606.535 372.938C606.535 385.836 604.117 399.944 599.28 415.261C595.249 429.772 587.994 443.88 577.514 457.584C567.84 471.289 554.135 482.575 536.399 491.443C518.664 500.311 496.495 504.745 469.891 504.745H345.34Z" fill="#233F53"/>
</svg>
